# xmcd
#
# Track frame offsets: 
#        150
#        17657
#        40927
#        61760
#        91172
#        110747
#        129370
#        137133
#        156312
#        179252
#        202578
#        205484
#
# Disc length: 2986 seconds
#
# Revision: 1
# Processed by: cddbd v1.5.2PL0 Copyright (c) Steve Scherf et al.
# Submitted via: ExactAudioCopy v0.95b4
#
DISCID=9e0ba80c
DTITLE=Evil Masquerade - Theatrical Madness
DYEAR=2005
DGENRE=Metal
TTITLE0=When Satan Calls
TTITLE1=Theatrical Madness
TTITLE2=Bozo The Clown
TTITLE3=Now When Our Stars Are Fading
TTITLE4=A Great Day To Die
TTITLE5=The Demolition Army
TTITLE6=Snow White
TTITLE7=Witches Chant
TTITLE8=Other Ways To Babylon
TTITLE9=The Dark Play
TTITLE10=Outro
TTITLE11=Yes Sir, I Can Boogie (Bonus Track)
EXTD=YEAR: 2005
EXTT0=
EXTT1=
EXTT2=
EXTT3=
EXTT4=
EXTT5=
EXTT6=
EXTT7=
EXTT8=
EXTT9=
EXTT10=
EXTT11=
PLAYORDER=
